/* XPM */
static char *_7842032fe0b412ac997cb02d91eee6fC8bvF2Crvczn6I3n[] = {
/* columns rows colors chars-per-pixel */
"64 64 160 2 ",
"   c #53595C",
".  c #555C60",
"X  c #4B616C",
"o  c #5B6265",
"O  c #56656D",
"+  c #5D666B",
"@  c #5F686B",
"#  c #4F6875",
"$  c #4D6E7D",
"%  c #536770",
"&  c #556B76",
"*  c #5D6C75",
"=  c #526E7B",
"-  c #5F7077",
";  c #57737F",
":  c #5B737E",
">  c #636465",
",  c #656B6D",
"<  c #6B6C6C",
"1  c #636D72",
"2  c #6A6E70",
"3  c #627077",
"4  c #6E7173",
"5  c #63737A",
"6  c #6B757C",
"7  c #6B797E",
"8  c #737576",
"9  c #737779",
"0  c #75797B",
"q  c #7D7D7D",
"w  c #807F7F",
"e  c #4E7889",
"r  c #567482",
"t  c #5A7682",
"y  c #587886",
"u  c #517689",
"i  c #557B8C",
"p  c #5A7D8C",
"a  c #557E92",
"s  c #587D97",
"d  c #657386",
"f  c #697481",
"g  c #617884",
"h  c #6F7C81",
"j  c #647C8A",
"k  c #6D798E",
"l  c #707C81",
"z  c #7E7F80",
"x  c #717A89",
"c  c #677E90",
"v  c #647FA3",
"b  c #558295",
"n  c #598094",
"m  c #558499",
"M  c #59869C",
"N  c #56889E",
"B  c #5A8A9D",
"V  c #7D8797",
"C  c #578AA2",
"Z  c #588BA5",
"A  c #5B8FAD",
"S  c #5B92A7",
"D  c #5B93AB",
"F  c #5C98AF",
"G  c #5D94B4",
"H  c #5E9BB3",
"J  c #5E95B8",
"K  c #5F9DB8",
"L  c #6487A9",
"P  c #6C86AD",
"I  c #608FAB",
"U  c #7086A8",
"Y  c #6992AD",
"T  c #6486B3",
"R  c #628BB4",
"E  c #6488BA",
"W  c #6096B9",
"Q  c #619DBB",
"!  c #5FA0B9",
"~  c #61A1BB",
"^  c #639EC4",
"/  c #689EC6",
"(  c #6A93CB",
")  c #6A9ECB",
"_  c #7095C0",
"`  c #6A97D1",
"'  c #669ED0",
"]  c #6B99D3",
"[  c #6B9DDC",
"{  c #63A2C3",
"}  c #65A2CB",
"|  c #69A3CB",
" . c #70A3CD",
".. c #67A4D1",
"X. c #69A6D6",
"o. c #6AA8D6",
"O. c #6AA6D8",
"+. c #6CA9DE",
"@. c #7FA9D4",
"#. c #6DA2E2",
"$. c #6EABE4",
"%. c #6FA6EA",
"&. c #71ACE5",
"*. c #7DABE6",
"=. c #71A5E9",
"-. c #71ADEB",
";. c #73AFF3",
":. c #75AFF8",
">. c #74B0F3",
",. c #79B2F5",
"<. c #77B3FD",
"1. c #7AB4FE",
"2. c #848484",
"3. c #858585",
"4. c #888787",
"5. c #888887",
"6. c #838788",
"7. c #84888B",
"8. c #898889",
"9. c #8C8C8C",
"0. c #8D8E8E",
"q. c #908F8F",
"w. c #90908F",
"e. c #808794",
"r. c #828F95",
"t. c #8F8F90",
"y. c #829097",
"u. c gray57",
"i. c #979797",
"p. c #979898",
"a. c #9B9B9B",
"s. c gray61",
"d. c #A4A4A4",
"f. c #A7A7A7",
"g. c #AFAFAF",
"h. c #B2B2B2",
"j. c #BCBCBD",
"k. c #89B6E7",
"l. c #8EB7EF",
"z. c #8CBAF6",
"x. c #82B7FE",
"c. c #86B8FD",
"v. c #8DBBFE",
"b. c #99BFF7",
"n. c #92BDFE",
"m. c #98BFFE",
"M. c #9CC1FE",
"N. c #A5C5FE",
"B. c #A8C6FE",
"V. c #C5C5C5",
"C. c #CCCCCC",
"Z. c gray82",
"A. c LightGray",
"S. c #D5D5D5",
"D. c #DFDFDF",
"F. c #E2E2E2",
"G. c #EEEEEE",
"H. c #F3F3F3",
"J. c gray98",
"K. c white",
/* pixels */
"K.K.K.K.K.K.K.K.K.K.K.K.K.K.K.K.K.K.K.K.K.K.K.K.K.K.K.K.K.K.K.K.K.K.K.K.K.K.K.K.K.K.K.K.K.K.K.K.K.K.K.K.K.K.K.K.K.K.K.K.K.K.K.K.",
"K.K.K.K.K.K.K.K.K.K.K.K.K.K.K.K.K.K.K.K.K.K.K.K.K.K.K.K.K.K.K.K.K.K.K.K.K.K.K.K.K.K.K.K.K.K.K.K.K.K.K.K.K.K.K.K.K.K.K.K.K.K.K.K.",
"K.K.K.K.K.K.K.K.K.K.K.K.K.K.K.K.K.K.K.K.K.K.K.K.K.K.K.K.K.K.K.K.K.K.K.K.K.K.K.K.K.K.K.K.K.K.K.K.K.K.K.K.K.K.K.K.K.K.K.K.K.K.K.K.",
"K.K.K.K.K.K.K.K.K.K.K.K.K.K.K.K.K.K.K.K.K.K.K.K.K.K.K.K.K.K.K.K.K.K.K.K.K.K.K.K.K.K.K.K.K.K.K.K.K.K.K.K.K.K.K.K.K.K.K.K.K.K.K.K.",
"K.K.K.K.K.K.K.K.K.K.K.K.K.K.K.K.K.K.K.K.K.K.K.K.K.K.K.K.K.K.K.K.K.K.K.K.K.K.K.K.K.K.K.K.K.K.K.K.K.K.K.K.K.K.K.K.K.K.K.K.K.K.K.K.",
"J.H.H.H.H.H.H.H.H.H.H.H.H.H.H.H.H.H.H.H.H.H.H.H.H.H.H.H.H.H.H.H.H.H.H.H.H.H.H.H.H.H.H.H.H.H.H.H.H.H.H.H.H.H.H.H.H.H.H.H.H.H.H.J.",
"H.F.Z.Z.Z.Z.Z.Z.Z.Z.Z.Z.Z.Z.Z.Z.Z.Z.Z.Z.Z.Z.Z.Z.Z.Z.Z.Z.Z.Z.Z.Z.Z.Z.Z.Z.Z.Z.Z.Z.Z.Z.Z.Z.Z.Z.Z.Z.Z.Z.Z.Z.Z.Z.Z.Z.Z.Z.Z.Z.Z.Z.S.G.",
"F.j.s.a.a.s.a.a.a.a.a.a.a.a.a.a.i.i.a.a.a.a.a.a.a.a.a.i.i.i.i.i.i.i.i.i.i.i.i.i.i.i.i.i.i.i.a.a.a.a.s.s.s.s.s.s.s.s.s.s.s.a.g.Z.",
"D.d.q q 2.2.2.2.2.2.2.2.2.2.2.2.w w 2.2.2.2.2.2.2.2.2.q q q q q q q q q q q q q q q q q q q z 2.2.2.2.8.8.8.8.8.8.8.8.8.8.q i.V.",
"D.d.2.8.0.4.2.2.2.2.2.2.2.2.2.2.2.2.8.0.0.0.0.0.0.8.2.2.2.2.2.2.2.2.2.2.2.2.2.2.2.2.2.2.2.2.2.2.2.2.8.0.0.0.t.t.q.q.u.i.i.2.i.V.",
"D.d.8.0.8.0 4 4 4 4 4 4 4 4 4 4 4 8 8 9 9 9 9 9 9 8 8 4 4 4 4 4 4 4 4 4 4 4 4 4 4 4 4 4 4 4 4 4 4 4 8 9 9 9 9 9 9 9 q 8.i.8.a.V.",
"D.d.0.u.2.2 O : : : : : : : : : : : : t t t t t t t : : : : : t t t t t : : : : : : : : : : : : : : : : t t t t : * , 0 u.8.a.V.",
"D.d.0.0.q 1 $ b N N N N C Z Z Z Z Z Z Z Z Z Z C N N N N N N b b b b b b m N N N N N C Z Z Z Z Z Z Z Z Z C N N N N e & 8 0.8.a.V.",
"D.d.0.0.z 5 a F H H K { } ....................} ^ H H H H S B M m m m N A F H H H Q } | ............X.| { Q H H H N t 8 0.2.a.V.",
"D.d.0.q.z 5 b H ! ~ { o.$.-.-.-.-.-.-.-.-.-.-.$.X.{ ~ ~ H B y : : : & = b F Q ~ { ..$.-.-.-.-.-.-.-.-.-.+.} { ~ H C t 8 0.2.p.V.",
"D.d.0.0.z 5 b H ~ { o.-.>.<.<.<.<.<.<.<.<.<.<.>.$.X.{ ~ H b 5 8 q 9 , O i S ~ { ..$.;.<.<.<.<.<.<.<.<.<.;.+.} { H Z t 8 0.2.i.V.",
"D.d.8.0.q 5 b H { o.-.>.<.<.<.<.<.<.<.<.<.<.<.<.>.$.X.{ H n 7 2.a.u.q , i S { } $.;.<.<.<.<.<.<.<.<.<.<.<.;.+.} Q Z t 8 0.2.i.V.",
"D.d.8.8.0 5 b Q X.-.>.<.<.<.<.<.<.<.<.<.<.<.<.<.<.>.$.X.Q n h 0.d.s.2.1 i G } $.;.<.<.<.<.<.<.<.<.<.<.<.<.<.-.+.} Z t 8 0.2.i.V.",
"D.d.2.2.0 - b ^ $.>.<.<.<.<.<.<.<.<.<.<.<.<.<.1.1.x.,.$.Q n l 0.d.s.2.1 i G O.;.<.<.<.<.<.<.<.<.1.1.x.1.<.<.<.-.X.Z t 8 0.2.i.V.",
"D.d.2.2.9 - m ^ -.<.<.<.<.<.<.<.<.<.<.<.<.<.1.x.v.v.x.&.^ n h 0.d.s.2.1 i J +.>.<.<.<.<.<.<.<.1.x.v.v.x.<.<.<.>.O.A t 8 0.2.i.V.",
"D.d.2.2.9 - b ^ -.<.<.<.<.<.<.<.<.<.<.<.<.1.x.v.M.m.c.&.^ n h 0.d.s.2.1 i J $.>.<.<.<.<.<.<.1.x.v.M.m.v.1.<.<.>.X.A t 4 8.2.i.V.",
"D.d.2.2.9 - m ^ -.<.<.<.<.<.<.<.<.<.<.<.1.x.n.M.N.M.c.&.^ n h 0.d.s.2.1 i J $.>.<.<.<.<.<.1.x.n.M.N.M.v.1.<.<.>.X.A t 4 2.q i.V.",
"D.d.2.2.9 - m ^ -.<.<.<.<.<.<.<.<.<.<.1.x.v.M.N.N.M.c.&.^ n h 0.d.s.2.1 i J +.>.<.<.<.<.1.x.v.M.N.N.M.v.1.<.<.>.X.A r 2 2.q u.V.",
"D.d.2.2.9 - m ^ -.<.<.<.<.<.<.<.<.<.1.x.v.M.N.B.N.M.c.&.^ n h 0.d.s.2.1 i J +.>.<.<.<.1.x.v.M.N.B.N.M.c.1.<.<.>.X.A r 2 2.q u.V.",
"D.d.2.2.9 - m ^ -.<.<.<.<.<.<.<.<.1.x.v.M.N.B.N.M.v.1.&.^ n h 0.d.s.2.1 i J +.>.<.<.1.x.n.M.N.B.N.M.v.x.<.<.<.>.X.A r 2 2.q u.V.",
"D.d.2.2.9 - m ^ -.<.<.<.<.<.<.<.1.x.v.M.N.B.N.M.v.x.,.$.^ n l 0.d.s.2.1 i J +.>.<.1.x.n.M.N.B.N.M.v.x.1.<.<.<.>.X.A r 2 2.q u.V.",
"D.d.2.2.9 3 m ^ -.<.<.<.<.<.<.1.x.v.M.N.B.N.M.v.x.1.<.$.^ n l 0.d.s.2.1 i J +.>.1.x.v.M.N.B.N.M.v.x.1.<.<.<.<.>.X.A r 2 2.q u.V.",
"D.d.2.2.9 3 m ^ -.<.<.<.<.<.1.x.v.M.N.B.N.M.v.x.1.<.<.$.^ n h 0.d.s.2.1 i J +.>.1.c.M.N.B.N.M.v.x.1.<.<.<.<.<.>.X.A r 2 2.q u.V.",
"D.d.2.2.9 - m ^ -.<.<.<.<.1.x.n.M.N.B.N.M.v.x.1.<.<.<.$.^ a 7 0.d.s.2.1 p J +.>.1.v.M.N.N.M.v.x.1.<.<.<.<.<.<.>.X.A r 2 2.q u.V.",
"D.d.2.2.8 - m ^ -.<.<.<.1.x.v.M.N.B.N.M.v.x.1.<.<.<.<.$.^ a 6 8.s.a.2.4 p W +.>.1.v.M.N.M.v.x.1.<.<.<.<.<.<.<.>.X.A r 2 2.q u.V.",
"D.d.2.2.0 5 m ^ -.<.<.<.1.v.M.N.B.N.M.v.x.1.<.<.<.<.<.$.^ a 5 2.a.a.2.4 p W +.>.1.c.m.m.v.x.1.<.<.<.<.<.<.<.<.>.X.A t 2 2.q u.V.",
"D.d.2.4.0 5 m ^ -.<.<.<.x.n.N.B.N.M.v.x.1.<.<.<.<.<.<.$.^ a 3 q i.i.2.4 p W +.>.<.x.v.v.x.1.<.<.<.<.<.<.<.<.<.>.X.A t 4 8.2.i.V.",
"D.d.2.8.q 5 m ^ -.<.<.<.x.n.N.N.M.v.x.1.<.<.<.<.<.<.-.X.G u 1 q u.i.2.2 y A ' %.:.1.x.1.1.<.<.<.<.<.<.<.<.<.<.>.X.A t 4 0.2.i.V.",
"D.d.8.0.z 5 m ^ -.<.<.<.x.n.M.M.v.x.1.<.<.<.<.<.<.-.` R s # @ q u.i.2., & a A ( =.:.<.<.<.<.<.<.<.<.<.<.<.<.<.>.X.A t 8 0.2.i.V.",
"D.d.8.0.z 5 m ^ -.<.<.<.x.v.m.v.x.1.<.<.<.<.<.<.-.] P d * . > q u.i.2.< o + d v ( =.:.<.<.<.<.<.<.<.<.<.<.<.<.>.X.A t 8 0.2.i.V.",
"D.d.4.0.z 5 m ^ -.<.<.<.1.x.c.x.1.<.<.<.<.<.<.-.` P V 7.2.< < q u.i.2.< 8 q 7.e.U ( %.:.<.<.<.<.<.<.<.<.<.<.<.>.X.A t 4 7.2.i.V.",
"D.d.2.0.z 5 m ^ -.<.<.<.1.1.1.1.<.<.<.<.<.<.<.#.E k 7.i.w.8 < q u.i.2.8 0 8.i.0.x L [ :.<.<.<.<.<.<.<.<.<.<.<.>.X.A t 2 2.q i.V.",
"D.d.2.0.z 5 m ^ -.<.<.<.<.<.<.<.<.<.<.<.<.<.,.#.T f 2.0.8.8 < q u.i.2.8 8 2.q.2.6 v [ :.<.<.<.<.<.<.<.<.<.<.<.>.X.A r 2 2.q u.V.",
"D.d.2.8.q 5 m ^ -.<.<.<.<.<.<.<.<.<.<.<.<.1.x.*._ c 9 0 8 > > q i.a.0.8 < 8 0 0 j R #.<.<.<.<.<.<.<.<.<.<.<.<.>.X.A r 2 2.q u.V.",
"D.d.2.2.0 5 m ^ -.<.<.<.<.<.<.<.<.<.<.<.1.x.n.l.@.Y j 1 +   > q a.d.u.8 o o 1 g L ) -.<.<.<.<.<.<.<.<.<.<.<.<.>.X.A r 2 2.q i.V.",
"D.d.2.2.8 - m ^ -.<.<.<.<.<.<.<.<.<.<.1.c.n.M.b.k. .I a r X + q a.d.i.8 O = i Z / &.>.<.<.<.<.<.<.<.<.<.<.<.<.>.X.A r 2 2.q i.V.",
"D.d.2.2.8 - m ^ -.<.<.<.<.<.<.<.<.<.1.x.n.M.N.M.z.&.X.Q A u 1 q a.d.i.9 y N Q | &.>.<.<.<.<.<.<.1.1.1.1.<.<.<.>.X.A r 2 2.q i.V.",
"D.d.2.2.8 - m ^ -.<.<.<.<.<.<.<.<.1.c.n.M.N.N.M.v.,.-.o.Q i 1 q a.d.i.9 p D X.&.>.<.<.<.<.<.<.<.x.v.v.x.1.<.<.>.X.A r 2 2.q i.V.",
"D.d.2.2.8 - m ^ -.<.<.<.<.<.<.<.1.c.n.M.N.N.N.m.v.1.>.$.^ a 1 q a.d.i.9 p G +.>.<.<.<.<.<.<.1.x.v.m.m.c.1.<.<.>.X.A r 2 2.q i.V.",
"D.d.2.2.8 - m ^ -.<.<.<.<.<.<.1.c.n.M.N.B.N.M.v.x.<.<.$.^ a 1 q a.d.i.9 p J +.>.<.<.<.<.<.1.1.v.M.N.M.v.1.<.<.>.X.A r 2 2.q i.V.",
"D.d.2.2.8 - m ^ -.<.<.<.<.<.1.c.n.M.N.B.N.M.v.x.1.<.<.$.^ a 1 q a.d.i.9 p J +.>.<.<.<.<.1.x.v.M.N.N.M.v.1.<.<.>.X.A r 2 2.w i.V.",
"D.d.2.2.8 - m ^ -.<.<.<.<.1.x.n.M.N.B.N.M.v.x.1.<.<.<.$.^ a 1 q a.d.i.9 p J +.>.<.<.<.1.x.v.M.N.B.N.M.v.1.<.<.>.X.A r 2 2.2.i.V.",
"D.d.2.2.8 - m ^ -.<.<.<.1.x.n.M.N.B.N.M.v.x.1.<.<.<.<.$.^ a 3 q a.d.i.9 p J +.>.<.<.1.x.v.M.N.B.N.M.n.x.1.<.<.>.X.A t 4 8.2.a.V.",
"D.d.2.2.8 * b ^ -.<.<.<.1.v.M.N.B.N.M.v.x.<.<.<.<.<.<.$.^ n 5 2.a.d.i.9 p J +.>.<.<.1.v.M.N.B.N.M.n.c.1.<.<.<.>.X.A t 4 0.2.a.V.",
"D.d.2.2.8 * b ^ -.<.<.<.x.n.N.B.N.M.v.x.1.<.<.<.<.<.<.$.^ n 5 2.a.d.i.9 p G +.>.<.<.1.v.M.B.N.M.n.c.1.<.<.<.<.>.X.A t 4 0.5.a.V.",
"D.d.2.2.8 - b ^ $.>.<.<.x.n.N.N.M.v.x.1.<.<.<.<.<.<.;.+.Q n 5 2.a.d.i.9 p G O.-.<.<.1.v.M.N.M.n.c.1.<.<.<.<.<.-.X.S t 9 0.8.a.V.",
"D.d.2.2.9 - b Q X.$.>.<.x.n.M.M.v.x.1.<.<.<.<.<.<.>.$...W n 5 2.a.d.i.9 p D } $.;.<.1.v.M.M.n.c.1.<.<.<.<.<.-.+.{ A t 9 0.8.a.V.",
"D.d.2.2.0 5 b H { X.$.>.1.v.m.v.x.1.<.<.<.<.<.<.>.$...{ H n 5 2.a.d.i.9 p S ~ } $.;.,.v.n.n.x.1.<.<.<.<.<.-.O.} Q Z t 9 0.8.a.V.",
"D.d.2.8.q 5 b H ~ { X.$.,.x.c.1.,.<.<.<.<.<.<.>.$.X.{ ~ H n 5 2.a.d.i.9 p S ~ { } +.>.1.c.x.1.<.<.<.<.>.-.O.} ~ H Z t 9 0.8.a.V.",
"D.d.5.0.q 5 b H ! ~ { X.$.-.-.-.-.-.-.-.-.-.-.$...{ ~ Q H n 5 2.a.d.i.9 p S ~ ~ ~ } +.-.-.-.-.-.-.-.-.$.+.} ~ ~ H C t 8 0.8.a.V.",
"D.d.2.8.q 5 i D H H H Q ^ } } } } } } } } } } ^ Q H H H D i 3 q i.s.u.9 p Z H H H Q ^ } } } } } } } } } ^ H H H F N ; 4 8.2.a.V.",
"D.d.0 8 < + = b m m m M M M M M M M M M M M M M M m m m a = + < 2.8.q , & i m m m M M M M M M M M M M M M N m m b u % > 0 8 u.V.",
"F.h.u.8.8.6.7.r.r.y.y.r.r.r.r.r.r.r.r.r.r.y.r.r.r.y.y.r.r.7.6.8.0.u.0.7.7.r.y.y.y.y.r.r.r.r.r.r.r.r.r.r.r.y.y.y.r.e.6.2.8.8.d.C.",
"G.Z.V.j.j.j.j.j.j.j.j.j.j.j.j.j.j.j.j.j.j.j.j.j.j.j.j.j.j.j.j.j.j.j.j.j.j.j.j.j.j.j.j.j.j.j.j.j.j.j.j.j.j.j.j.j.j.j.j.j.j.j.C.F.",
"J.H.G.G.G.G.G.G.G.G.G.G.G.G.G.G.G.G.G.G.G.G.G.G.G.G.G.G.G.G.G.G.G.G.G.G.G.G.G.G.G.G.G.G.G.G.G.G.G.G.G.G.G.G.G.G.G.G.G.G.G.G.H.H.",
"K.K.K.K.K.K.K.K.K.K.K.K.K.K.K.K.K.K.K.K.K.K.K.K.K.K.K.K.K.K.K.K.K.K.K.K.K.K.K.K.K.K.K.K.K.K.K.K.K.K.K.K.K.K.K.K.K.K.K.K.K.K.K.K.",
"K.K.K.K.K.K.K.K.K.K.K.K.K.K.K.K.K.K.K.K.K.K.K.K.K.K.K.K.K.K.K.K.K.K.K.K.K.K.K.K.K.K.K.K.K.K.K.K.K.K.K.K.K.K.K.K.K.K.K.K.K.K.K.K.",
"K.J.J.J.J.J.J.J.J.J.J.J.J.J.J.J.H.H.H.H.J.J.H.H.H.H.H.H.J.J.H.H.H.H.H.H.J.J.H.H.H.H.H.H.J.J.J.J.J.J.J.J.J.J.J.J.J.J.J.J.J.J.J.J.",
"H.F.S.Z.Z.Z.Z.Z.Z.Z.Z.Z.Z.Z.Z.Z.Z.Z.Z.Z.Z.Z.Z.Z.Z.Z.Z.Z.Z.Z.Z.Z.Z.Z.Z.Z.Z.Z.Z.Z.Z.Z.Z.Z.Z.Z.Z.Z.Z.Z.Z.Z.Z.Z.Z.Z.Z.Z.Z.Z.Z.Z.D.G."
};
