/* XPM */
static char *_8d27d68a5a94fd1ee73b284092b00baNFAXZFr0Fi9OHD9j[] = {
/* columns rows colors chars-per-pixel */
"64 64 173 2 ",
"   c #53595D",
".  c #5A5F62",
"X  c #4D616C",
"o  c #5E6366",
"O  c #53626A",
"+  c #5B656C",
"@  c #4E6571",
"#  c #546A74",
"$  c #5C6D75",
"%  c #526E7B",
"&  c #5A6E7A",
"*  c #55717D",
"=  c #58747F",
"-  c #656667",
";  c #646A6D",
":  c #6B6C6C",
">  c #646D72",
",  c #626F7B",
"<  c #706F70",
"1  c #657075",
"2  c #6D7275",
"3  c #63737E",
"4  c #6D737A",
"5  c #6F797D",
"6  c #737474",
"7  c #73767B",
"8  c #757A7D",
"9  c #7D7D7D",
"0  c #807F7F",
"q  c #80807F",
"w  c #506E81",
"e  c #567685",
"r  c #5A7485",
"t  c #5A7A87",
"y  c #527489",
"u  c #547A8C",
"i  c #5B7B89",
"p  c #537E90",
"a  c #5B7C99",
"s  c #616F80",
"d  c #6C7C84",
"f  c #66778A",
"g  c #727780",
"h  c #777D80",
"j  c #7B7E80",
"k  c #747D8B",
"l  c #647794",
"z  c #667995",
"x  c #687A97",
"c  c #657999",
"v  c #5A7EA0",
"b  c #647FA5",
"n  c #617FA9",
"m  c #548194",
"M  c #5F8394",
"N  c #55869A",
"B  c #5F8799",
"V  c #57899D",
"C  c #7F8082",
"Z  c #76848C",
"A  c #7B818C",
"S  c #7A888F",
"D  c #60879A",
"F  c #61889B",
"G  c #7C8991",
"H  c #72839F",
"J  c #5787A4",
"K  c #5B80A6",
"L  c #578DA3",
"P  c #598EA4",
"I  c #5C85AB",
"U  c #5A8EAB",
"Y  c #5B93AD",
"T  c #5E89B5",
"R  c #5C92B2",
"E  c #5E9BB4",
"W  c #5E91BB",
"Q  c #5F9DB9",
"!  c #6E83A4",
"~  c #6380AA",
"^  c #6882AA",
"/  c #7688A6",
"(  c #7186A9",
")  c #7989A9",
"_  c #6685B1",
"`  c #628CBE",
"'  c #6096BC",
"]  c #609BBB",
"[  c #61A1BD",
"{  c #648EC6",
"}  c #698FC3",
"|  c #6690C6",
" . c #6D91C4",
".. c #639CC4",
"X. c #6696CC",
"o. c #6C95CA",
"O. c #659DCB",
"+. c #7296CA",
"@. c #669CD2",
"#. c #6999D6",
"$. c #6B9DDD",
"%. c #719FDD",
"&. c #63A2C3",
"*. c #66A4CB",
"=. c #67A5D1",
"-. c #69A5D5",
";. c #6AA7DA",
":. c #6CA9DC",
">. c #73A0DD",
",. c #75A7DC",
"<. c #6EA2E3",
"1. c #6EABE4",
"2. c #6FA6EA",
"3. c #70A5E6",
"4. c #72ADE6",
"5. c #72A7E9",
"6. c #72AEEE",
"7. c #7FABEA",
"8. c #7DB2EC",
"9. c #73ADF3",
"0. c #7AAEF3",
"q. c #75AFF9",
"w. c #74B0F5",
"e. c #7CB2F4",
"r. c #77B3FD",
"t. c #7BB4FE",
"y. c #848484",
"u. c #888887",
"i. c #818689",
"p. c #83898C",
"a. c #8C8C8C",
"s. c #838C91",
"d. c #898E97",
"f. c #949494",
"g. c #9A9A9A",
"h. c #A4A4A4",
"j. c #A6A7A7",
"k. c #ACACAC",
"l. c #AFB0B1",
"z. c #B4B5B5",
"x. c #BCBCBC",
"c. c #88A8DD",
"v. c #94AEDD",
"b. c #81ACE9",
"n. c #82B3F5",
"m. c #88B6F7",
"M. c #82B6FD",
"N. c #89B7F9",
"B. c #86B8FE",
"V. c #8BBAFD",
"C. c #94BDFE",
"Z. c #99BFFD",
"A. c #BFC0C1",
"S. c #9CC1FE",
"D. c #A4C4FE",
"F. c #A8C6FE",
"G. c #C0C1C1",
"H. c #C4C4C4",
"J. c gray78",
"K. c #C8C8C8",
"L. c #CBCBCB",
"P. c #D0D0D0",
"I. c LightGray",
"U. c gray84",
"Y. c #DEDEDE",
"T. c #E4E4E4",
"R. c #EDEDED",
"E. c #F0F0EF",
"W. c #EFEFF0",
"Q. c #F3F3F3",
"!. c #F5F5F5",
"~. c #FAFAFA",
"^. c gray99",
/* pixels */
"Q.T.U.I.I.I.I.I.I.I.I.I.I.I.I.I.I.I.I.I.I.I.I.I.I.U.I.U.I.U.U.U.U.I.I.U.U.U.U.U.U.I.U.I.I.I.I.I.I.I.I.I.I.I.I.I.I.I.I.I.U.U.U.T.",
"^.!.!.Q.Q.!.Q.Q.Q.Q.Q.Q.Q.Q.Q.Q.Q.Q.Q.Q.Q.Q.Q.Q.Q.Q.Q.Q.Q.Q.Q.Q.Q.Q.Q.Q.Q.Q.Q.Q.Q.Q.Q.Q.Q.Q.Q.Q.Q.Q.Q.Q.Q.Q.Q.Q.Q.Q.Q.Q.Q.Q.!.~.",
"^.^.^.^.^.^.^.^.^.^.^.^.^.^.^.^.^.^.^.^.^.^.^.^.^.^.^.^.^.^.^.^.^.^.^.^.^.^.^.^.^.^.^.^.^.^.^.^.^.^.^.^.^.^.^.^.^.^.^.^.^.^.^.^.",
"^.^.^.^.^.^.^.^.^.^.^.^.^.^.^.^.^.^.^.^.^.^.^.^.^.^.^.^.^.^.^.^.^.^.^.^.^.^.^.^.^.^.^.^.^.^.^.^.^.^.^.^.^.^.^.^.^.^.^.^.^.^.^.^.",
"~.!.Q.Q.Q.Q.Q.Q.Q.Q.Q.Q.Q.Q.Q.Q.Q.Q.Q.Q.R.R.Q.Q.Q.Q.Q.Q.Q.Q.Q.Q.Q.Q.Q.Q.Q.Q.Q.Q.Q.Q.Q.Q.Q.Q.Q.Q.Q.Q.Q.Q.Q.Q.Q.Q.Q.Q.Q.Q.Q.Q.!.~.",
"Q.U.K.J.K.K.K.K.J.K.J.J.K.K.J.J.J.J.J.J.J.J.J.J.J.J.J.J.J.J.J.J.J.J.J.J.J.J.J.J.J.J.J.J.J.J.J.J.K.K.K.K.K.K.K.K.K.K.K.K.K.K.I.T.",
"T.z.f.f.f.f.f.f.f.f.f.f.f.f.f.f.f.a.f.f.f.f.f.f.f.f.f.f.a.a.a.a.a.a.a.a.a.a.a.a.a.a.f.a.a.a.a.f.f.f.f.f.f.f.f.f.f.f.f.f.f.f.j.I.",
"Y.j.y.y.u.u.u.u.u.u.u.u.u.u.u.u.u.u.u.u.a.a.a.a.u.u.u.u.y.y.y.y.y.y.y.y.y.y.y.y.y.y.y.y.y.y.u.u.u.u.u.a.a.a.a.a.a.a.a.a.a.y.g.J.",
"Y.j.u.u.u.u.y.y.q q q q q q q 0 9 q y.u.u.u.u.u.u.u.y.0 9 9 9 9 9 9 9 9 9 9 q q 9 9 9 9 q q q q q y.y.u.u.u.u.u.u.u.a.f.f.u.f.J.",
"Y.j.u.a.u.8 2 2 2 2 2 2 2 2 2 2 2 7 7 8 8 8 8 8 8 8 7 4 4 4 2 2 2 2 4 4 4 4 4 7 4 4 4 4 4 2 2 2 2 2 7 8 8 8 8 8 8 8 9 u.f.u.g.J.",
"Y.j.u.a.y.; O % * * * * * * * * * * * * * * * * * * % * * * % % % % % * * * * * * * * * * * * * * * * * * * * * * # + 7 f.u.g.J.",
"Y.j.a.a.j , y P Y Y Y Y Y Y Y Y U P P L L L V V N N N N N N N N N N N N N N N N N N V V L L L P P U Y Y Y Y Y Y U m & 6 a.u.g.J.",
"Y.j.a.a.C f I O.-.-.-.-.-.-.-.-.*.&.Q E E E L m u p p p p p p p u p p p p p p m p p m L Y E E E ] *.-.-.-.-.-.-.=.W a 7 a.u.g.J.",
"Y.j.a.a.C z ` 2.9.w.9.9.9.9.9.9.1.-.&.[ Q E m * $ 3 d Z S G G G G G G G G G G Z d & # m Y ] [ &.=.1.6.9.9.9.9.w.6.@.b 7 a.u.f.J.",
"Y.j.a.a.C x { 9.r.r.r.r.r.r.r.r.w.1.-.&.] Y u $ 8 f.j.z.x.A.G.G.A.G.G.A.G.A.x.l.f.7 + e P ] &.=.1.w.r.r.r.r.r.r.w.$.~ g a.u.f.J.",
"Y.j.u.a.j x | 9.r.r.r.r.r.r.r.r.r.w.1.-.&.R u 4 a.z.K.Y.T.R.R.R.R.R.R.R.R.T.T.U.z.a.: e P &.=.1.9.r.r.r.r.r.r.r.r.$.~ g a.u.f.J.",
"Y.j.u.u.9 z { 9.r.r.r.r.r.r.r.r.r.r.w.4.=.E u 5 g.J.T.!.^.^.^.^.^.^.^.^.^.^.~.T.J.f.2 t Y *.1.9.r.r.r.r.r.r.t.t.r.$.~ g a.u.f.J.",
"Y.j.u.u.8 l { 9.r.r.r.r.r.r.r.r.t.M.M.e.:.] u 8 g.K.T.~.^.^.^.^.^.^.^.^.^.^.~.R.J.f.2 e R -.9.r.r.r.r.r.r.t.t.M.e.$.~ g a.u.f.J.",
"Y.j.u.u.8 l { 9.r.r.r.r.r.r.r.t.B.C.V.n.1.] u 8 g.K.T.^.^.^.^.^.^.^.^.^.^.^.^.R.J.f.2 e R ;.w.r.r.r.r.r.t.t.V.C.B.%.~ 7 a.u.f.J.",
"Y.j.u.u.8 l { 9.r.r.r.r.r.r.t.B.C.S.C.m.1.] u 8 g.K.R.^.^.^.^.^.^.^.^.^.^.^.^.R.J.f.2 e R ;.w.r.r.r.r.t.t.V.S.S.N.>.~ 4 u.y.f.J.",
"Y.j.u.u.8 l { 9.r.r.r.r.r.t.B.C.D.D.S.m.1.] u 8 g.K.R.^.^.^.^.^.^.^.^.^.^.^.~.T.J.f.2 e R ;.w.r.r.r.t.M.V.S.D.D.N.>.n 4 u.9 f.J.",
"Y.j.u.u.8 l { 9.r.r.r.r.t.B.C.D.D.D.S.m.1.] u 5 g.K.R.^.^.^.^.^.^.^.^.^.^.^.~.R.J.f.2 e R ;.w.r.r.t.M.V.S.D.F.D.N.>.n 4 y.8 f.G.",
"Y.j.u.u.8 l { 9.r.r.r.t.B.C.D.D.F.D.C.n.1.] u 5 g.K.R.^.^.^.^.^.^.^.^.^.^.^.^.R.J.f.2 e R ;.w.r.t.M.V.S.D.F.D.S.N.%.n 4 y.8 f.J.",
"Y.j.u.u.8 l { 9.r.r.t.B.C.S.D.F.D.S.V.e.1.Q u 5 g.K.R.^.^.^.^.^.^.^.^.^.^.^.^.R.J.f.2 e R ;.w.r.M.V.S.D.F.D.S.C.M.$.n 4 y.9 f.J.",
"Y.j.u.u.7 l { 9.r.t.B.C.D.D.D.D.Z.V.t.w.1.] u 8 g.K.R.^.^.^.^.^.^.^.^.^.^.^.^.R.J.f.2 e R ;.w.t.V.S.D.F.D.S.C.B.t.$.n 4 y.9 f.J.",
"Y.j.u.u.7 l { 9.t.B.C.D.D.F.D.Z.V.t.t.w.1.] u 8 g.K.R.^.^.^.^.^.^.^.^.^.^.^.^.R.J.f.2 e R ;.e.V.S.D.F.D.S.C.B.t.r.$.n 4 y.9 f.J.",
"Y.j.y.y.7 l { 0.B.C.D.D.F.D.Z.V.t.t.r.w.1.] u 8 g.K.R.^.^.^.^.^.^.^.^.^.^.^.^.R.J.f.2 e R :.e.C.D.F.D.S.C.M.t.t.q.$.n 4 y.9 f.J.",
"Y.j.y.y.7 l { 0.C.S.D.F.D.Z.V.t.t.r.r.w.1.] u 5 g.K.T.~.^.^.^.^.^.^.^.^.^.^.^.R.J.f.2 e R :.e.C.D.D.S.C.B.t.r.r.q.$.n 4 y.9 f.J.",
"Y.j.y.y.7 l | n.Z.D.F.D.Z.V.t.t.r.r.r.w.1.] u 4 f.J.T.~.^.^.^.^.^.^.^.^.^.^.~.R.J.f.2 e R :.e.C.D.S.C.B.t.r.r.r.q.$.n 4 y.9 f.J.",
"Y.j.y.u.8 l | n.S.D.D.Z.V.t.r.r.r.r.r.w.1.] u 1 f.G.T.~.^.^.^.^.^.^.^.^.^.^.~.R.J.f.2 e R :.e.C.S.C.B.t.r.r.r.r.q.$.n 4 u.9 f.J.",
"Y.j.u.u.9 z | n.Z.D.S.V.t.r.r.r.r.r.r.w.:.Q u 1 a.x.T.~.^.^.^.^.^.^.^.^.^.^.~.R.J.f.2 e R ;.e.V.V.B.t.r.r.r.r.r.q.$.n 4 u.y.f.J.",
"Y.j.u.a.j z | n.C.C.V.t.t.r.r.r.r.r.q.5.@.U e > a.x.T.~.^.^.^.^.^.^.^.^.^.^.~.R.J.f.2 * J O.3.0.t.t.r.r.r.r.r.r.q.$.n 7 a.y.f.J.",
"Y.h.u.a.C x { 0.B.B.t.t.r.r.r.r.r.q.<.| K y X ; a.x.T.~.^.^.^.^.^.^.^.^.^.^.~.R.J.f.: O w v ` <.q.r.r.r.r.r.r.r.q.$.~ 7 a.y.f.J.",
"Y.h.u.a.C x { 9.t.t.t.r.r.r.r.r.q.3.+.( k 4 o : a.x.T.~.^.^.^.^.^.^.^.^.^.^.~.R.J.f.: o > k H  .<.9.r.r.r.r.r.r.q.$.~ 7 a.y.f.J.",
"Y.h.u.a.C x { 9.r.r.r.r.r.r.r.r.2.o./ d.f.u.6 : a.x.T.~.^.^.^.^.^.^.^.^.^.^.^.R.K.g.6 < y.f.d./ } <.q.r.r.r.r.r.q.$.n 4 u.9 f.J.",
"Y.h.u.a.C x { 9.r.r.r.r.r.r.r.r.$.~ k f.j.g.9 6 a.x.T.~.^.^.^.^.^.^.^.^.^.^.^.R.K.g.6 8 f.j.g.A b #.q.r.r.r.r.r.q.$.n 4 y.9 f.J.",
"Y.h.u.a.j x { 9.r.r.r.r.r.r.r.t.$._ k a.g.f.6 : a.x.T.~.^.^.^.^.^.^.^.^.^.^.^.R.K.j.8 6 u.g.f.k b #.q.r.r.r.r.r.q.$.n 4 y.9 f.J.",
"Y.h.u.u.9 z { 9.r.r.r.r.r.t.t.B.7.+.! A C 8 - : a.x.T.~.^.^.^.^.^.^.^.^.^.^.^.Q.I.j.8 : 6 C A ! } <.q.r.r.r.r.r.q.$.n 4 y.9 f.J.",
"Y.h.y.u.8 z { 9.r.r.r.r.r.t.B.C.C.b.o.b s +   - a.x.T.~.^.^.^.^.^.^.^.^.^.^.^.Q.I.j.8 . O , c  .<.9.r.r.r.r.r.r.q.$.n 4 y.9 f.J.",
"Y.h.y.y.8 l { 9.r.r.r.r.t.B.C.S.S.m.5.X.I p @ ; a.x.T.~.^.^.^.^.^.^.^.^.^.^.^.Q.I.j.8 # y I | <.q.r.r.r.r.r.r.r.r.$.n 4 u.9 f.J.",
"Y.j.y.y.7 l { 9.r.r.r.t.B.C.D.D.S.V.e.2.@.U e > a.x.T.~.^.^.^.^.^.^.^.^.^.^.^.Q.I.j.8 * J O.2.q.r.r.r.r.r.r.r.t.t.%.^ 4 u.9 f.J.",
"Y.j.y.y.7 l { 9.r.t.t.B.C.D.D.D.S.V.t.r.1.] u 1 a.x.T.~.^.^.^.^.^.^.^.^.^.^.^.Q.I.j.h t R ;.w.r.r.r.r.r.r.r.t.M.N.c.( 4 u.9 f.J.",
"Y.j.y.y.7 l { 9.r.t.B.C.D.F.D.D.C.B.t.w.1.] u 1 a.x.T.~.^.^.^.^.^.^.^.^.^.^.^.Q.I.j.8 t R ;.w.r.r.r.r.r.r.r.M.V.C.v.) 4 u.9 f.J.",
"Y.j.y.y.7 l { 9.t.B.C.D.D.F.D.C.V.t.r.w.1.] u 1 a.x.T.~.^.^.^.^.^.^.^.^.^.^.^.Q.I.j.8 t R ;.w.r.r.r.r.r.t.t.V.S.S.v.) 7 u.9 f.J.",
"Y.h.y.y.7 l { 0.B.C.D.F.F.D.C.V.t.r.r.w.1.] u 1 a.x.T.~.^.^.^.^.^.^.^.^.^.^.^.R.I.j.h t R ;.w.r.r.r.r.t.M.V.Z.D.D.v.) 7 u.9 f.J.",
"Y.h.y.y.7 l { e.C.D.D.F.D.C.V.t.r.r.r.w.1.] u 1 a.x.T.~.^.^.^.^.^.^.^.^.^.^.^.R.I.j.h t R ;.w.r.r.r.t.M.V.S.D.F.D.v.) 7 u.y.g.J.",
"Y.h.y.y.7 l | n.Z.D.F.D.C.V.t.t.r.r.r.w.1.] u 1 a.x.T.~.^.^.^.^.^.^.^.^.^.^.^.R.I.j.h t R ;.w.r.r.t.M.V.S.D.F.D.Z.c.( 7 u.y.g.J.",
"Y.h.y.y.7 l | n.S.D.D.C.V.t.t.r.r.r.r.w.1.] u 1 a.x.T.~.^.^.^.^.^.^.^.^.^.^.^.R.I.j.h t R ;.w.r.r.t.B.C.D.F.D.S.C.,.^ 7 a.u.g.J.",
"Y.h.y.y.7 l { n.Z.S.C.V.t.r.r.r.r.r.r.w.1.] u 1 a.x.T.^.^.^.^.^.^.^.^.^.^.^.^.Q.I.j.h t R ;.9.r.r.t.V.S.F.D.S.C.M.$.~ g a.u.g.J.",
"Y.h.y.y.7 l { 0.C.C.V.t.t.r.r.r.r.r.r.6.;.Q u 1 a.x.T.^.^.^.^.^.^.^.^.^.^.^.^.Q.I.j.h t Y -.6.r.t.M.C.S.D.S.C.B.t.$.~ g a.u.g.J.",
"Y.h.y.y.7 l { 0.B.B.t.t.r.r.r.r.r.r.6.:.*.R u 1 a.x.T.~.^.^.^.^.^.^.^.^.^.^.^.Q.I.j.h t U &.;.6.e.V.S.D.S.C.B.t.r.$.~ g a.u.g.J.",
"Y.h.y.u.8 z { 9.t.t.t.r.r.r.r.r.r.6.:.*.[ Y u 1 a.x.T.~.^.^.^.^.^.^.^.^.^.^.^.Q.I.j.h t P [ *.:.8.N.C.S.C.B.t.t.r.$.~ g a.u.g.J.",
"Y.j.u.u.9 z { 6.r.r.r.r.r.r.r.r.6.:.*.&.Q Y u 1 a.x.T.~.^.^.^.^.^.^.^.^.^.^.^.Q.I.j.h t L Q [ *.:.8.B.B.M.t.r.r.q.$.n 7 a.u.g.J.",
"Y.j.u.a.j f T ;.2.1.1.1.1.1.1.2.:.*.[ [ Q Y u 1 a.x.T.~.^.^.^.^.^.^.^.^.^.^.~.Q.I.j.h t P Q [ [ *.:.4.4.4.1.1.1.1.X.a 7 a.u.g.J.",
"Y.j.y.u.8 3 a ' ................] E Y Y Y L e > u.k.U.T.R.R.R.R.R.R.R.R.R.R.T.T.J.g.7 r N Y Y Y E ] ..............U r 2 u.y.f.J.",
"Y.j.9 9 6 > r M F F F F F F F F F F F F D M & ; 8 g.z.J.K.K.K.K.K.K.K.K.K.K.K.G.j.a.2 & i B F F F F F F F F F F D i $ : 9 8 f.J.",
"T.z.f.u.u.y.i.s.s.s.s.s.s.s.s.s.s.s.s.s.s.p.i.y.u.f.g.j.j.j.j.j.j.j.j.j.j.j.j.j.g.a.u.i.p.s.s.s.s.s.s.s.s.s.s.s.s.p.y.u.u.u.j.K.",
"Q.U.K.K.K.K.K.K.K.K.K.K.K.K.K.K.K.K.K.K.K.K.K.K.K.K.K.K.K.K.K.K.K.K.K.K.K.K.K.K.K.K.K.K.K.K.K.K.K.K.K.K.K.K.K.K.K.K.K.K.K.K.U.T.",
"~.!.Q.Q.Q.Q.Q.E.E.E.E.E.E.E.E.E.E.E.E.Q.R.W.W.Q.Q.Q.W.R.R.R.R.R.R.R.Q.Q.R.R.R.R.Q.Q.Q.Q.Q.E.E.E.E.E.E.E.E.E.E.E.E.Q.Q.Q.Q.Q.Q.~.",
"^.^.^.^.^.^.^.^.^.^.^.^.^.^.^.^.^.^.^.^.^.^.^.^.^.^.^.^.^.^.^.^.^.^.^.^.^.^.^.^.^.^.^.^.^.^.^.^.^.^.^.^.^.^.^.^.^.^.^.^.^.^.^.^.",
"^.^.^.^.^.^.^.^.^.^.^.^.^.^.^.^.^.^.^.^.^.^.^.^.^.^.^.^.^.^.^.^.^.^.^.^.^.^.^.^.^.^.^.^.^.^.^.^.^.^.^.^.^.^.^.^.^.^.^.^.^.^.^.^.",
"~.!.!.Q.Q.Q.Q.Q.Q.Q.Q.Q.Q.Q.Q.Q.Q.Q.Q.Q.Q.Q.Q.Q.Q.Q.Q.Q.Q.Q.Q.Q.Q.Q.Q.Q.Q.Q.Q.Q.Q.Q.Q.Q.Q.Q.Q.Q.Q.Q.Q.Q.Q.Q.Q.Q.Q.Q.Q.Q.Q.Q.!.~.",
"Q.T.U.I.I.I.I.I.I.I.I.I.I.I.I.I.I.I.I.I.I.I.I.I.I.I.I.I.I.I.I.I.I.I.I.I.I.I.I.I.I.I.I.I.I.I.I.I.I.I.I.I.I.I.I.I.I.I.I.I.I.U.Y.T.",
"T.x.g.f.g.g.g.g.g.g.g.g.g.g.f.f.f.f.f.f.f.f.f.f.f.f.f.f.f.f.f.f.f.f.f.f.f.f.f.f.f.f.f.f.f.f.f.f.g.g.g.g.g.g.g.g.g.g.g.g.g.f.k.I."
};
